<svg xmlns="http://www.w3.org/2000/svg" viewBox="0 0 220 42" fill="none">
  <!-- Mark rendered at 48×42 inside a 220×42 lockup -->
  <g transform="translate(0, 0) scale(1.2)">
    <!-- TOP FACE -->
    <path d="M16,2  L22,5  L10,5  Z"              fill="#4285F4"/>
    <path d="M10,5  L22,5  L28,8  L4,8  Z"        fill="#EA4335"/>
    <path d="M4,8   L28,8  L22,11 L10,11 Z"       fill="#FBBC05"/>
    <path d="M10,11 L22,11 L16,14 Z"              fill="#34A853"/>
    <!-- LEFT FACE -->
    <path d="M4,8  L16,14 L16,17 L4,11 Z"  fill="#4285F4"/>
    <path d="M4,11 L16,17 L16,20 L4,14 Z"  fill="#EA4335"/>
    <path d="M4,14 L16,20 L16,23 L4,17 Z"  fill="#FBBC05"/>
    <path d="M4,17 L16,23 L16,26 L4,20 Z"  fill="#34A853"/>
    <path d="M4,8 L16,14 L16,26 L4,20 Z"   fill="rgba(0,0,0,0.20)"/>
    <!-- RIGHT FACE -->
    <path d="M16,14 L28,8  L28,11 L16,17 Z" fill="#4285F4"/>
    <path d="M16,17 L28,11 L28,14 L16,20 Z" fill="#EA4335"/>
    <path d="M16,20 L28,14 L28,17 L16,23 Z" fill="#FBBC05"/>
    <path d="M16,23 L28,17 L28,20 L16,26 Z" fill="#34A853"/>
    <path d="M28,8 L16,14 L16,26 L28,20 Z"  fill="rgba(0,0,0,0.07)"/>
    <!-- Hairlines -->
    <g stroke="rgba(255,255,255,0.45)" stroke-width="0.9" stroke-linecap="round" fill="none">
      <line x1="4"  y1="8"  x2="16" y2="14"/>
      <line x1="28" y1="8"  x2="16" y2="14"/>
      <line x1="16" y1="14" x2="16" y2="26"/>
    </g>
    <path d="M16,2 L28,8 L28,20 L16,26 L4,20 L4,8 Z"
          stroke="rgba(255,255,255,0.15)" stroke-width="0.5" fill="none"/>
  </g>
  <!-- Wordmark -->
  <text x="58" y="30"
        font-family="Fraunces, 'DM Serif Display', Georgia, serif"
        font-size="26" font-weight="700" letter-spacing="-0.03em">
    <tspan fill="#E8930A">SF</tspan><tspan fill="#1E1E2E">Vedas</tspan>
  </text>
</svg>
